<?xml version="1.0" encoding="UTF-8"?>
<svg viewBox="0 0 83 29" version="1.1" xmlns="http://www.w3.org/2000/svg" xmlns:xlink="http://www.w3.org/1999/xlink">
    <!-- Generator: sketchtool 55.2 (78181) - https://sketchapp.com -->
    <title>273092AD-7C8F-4CE3-94DD-670C3CB8508B</title>
    <desc>Created with sketchtool.</desc>
    <g id="couk-main-pages" stroke="none" stroke-width="1" fill="none" fill-rule="evenodd">
        <g id="Desktop/08M_quickcheck" transform="translate(-10.000000, -16.000000)">
            <g id="navbar_mobile">
                <g id="logo_capitalone-blue" transform="translate(10.000000, 16.000000)">
                    <path d="M54.7839147,19.2010414 C54.6613889,15.5978809 57.425145,11.9137602 61.4397298,11.9137602 C64.1248563,11.9137602 65.8826223,13.7410214 65.9804298,16.5395863 C66.108709,20.339271 63.5269304,23.8275204 59.3248278,23.8275204 C56.6388489,23.8275204 54.8817222,22.0039591 54.7839147,19.2010414 M56.5299607,19.313776 C56.5994275,21.4257034 57.9062984,23.154376 59.6124969,23.154376 C62.9185629,23.154376 64.3253723,19.0086521 64.2275647,16.238815 C64.1576718,14.1218821 62.8158543,12.3971269 61.112639,12.3971269 C58.2689748,12.3971269 56.4332186,16.5247871 56.5299607,19.313776" id="o" fill="#033877"></path>
                    <path d="M19.9194368,15.9929533 C19.9048154,16.323053 19.8484803,16.6119444 19.7611823,17.116203 L19.1649326,20.4892053 C19.1137579,20.7885072 19.223848,21.0240448 19.4999333,21.18454 L19.4812266,21.3164064 L16.0697238,21.3116349 L16.039406,20.4540699 C15.5427105,20.7561913 14.9428055,21.0112486 14.4005258,21.1608995 C13.8599662,21.3005737 13.4226161,21.362603 12.7659459,21.362603 C11.6637549,21.362603 11.032457,21.2472199 10.5972571,20.8618145 C10.1543165,20.4642635 9.94015683,20.2011815 9.96144378,19.6544133 C9.97821532,19.3401463 10.1399101,18.9358718 10.3736366,18.653487 C10.6099432,18.3661138 10.9311827,18.1789416 11.2818798,18.0136749 C11.6336521,17.8440705 12.0479951,17.721964 12.6506953,17.6258838 C13.2540407,17.5272009 14.0941227,17.4287349 15.2195359,17.333956 C15.8108401,17.2842892 16.1707831,17.1459163 16.3406487,17.0780312 C16.5758802,16.9862886 16.6679087,16.8841356 16.7023118,16.6911075 C16.7655276,16.3440909 16.6558676,16.1467251 16.1993807,16.0551994 C14.969898,15.8114202 12.6668218,16.2126583 11.479698,16.5123939 L12.1251872,14.7564895 C13.6907457,14.5261571 15.1586853,14.378675 16.7029569,14.378675 C19.158267,14.378675 19.944164,15.0850709 19.9194368,15.9929533 M16.3982739,18.2021485 C16.2531356,18.2568036 16.0662835,18.3114587 15.8347072,18.360258 C15.603346,18.4129611 15.1808323,18.488871 14.567381,18.5862526 C14.1446523,18.6534871 13.8517954,18.7428439 13.6845101,18.8634322 C13.5243204,18.9829361 13.4303568,19.1252129 13.4034793,19.2985044 C13.3703663,19.4841584 13.4303568,19.6320743 13.5899014,19.7478911 C13.7515962,19.8615391 14.0231661,19.9207488 14.4063313,19.9207488 C14.6933826,19.9207488 14.9750584,19.8734678 15.2477034,19.7862798 C15.5235737,19.694971 15.7551499,19.5709126 15.9349064,19.4177914 C16.0662835,19.3034928 16.1604621,19.1577458 16.2303435,18.9829361 C16.2709822,18.8684206 16.3294676,18.6094593 16.3982739,18.2021485" id="a" fill="#033877"></path>
                    <path d="M31.2702205,12.8886062 C31.3698347,12.3507238 32.2523507,11.9137602 33.2384216,11.9137602 C34.2262441,11.9137602 34.9469691,12.3507238 34.8515146,12.8886062 C34.7475218,13.4271206 33.8667573,13.8636628 32.8778402,13.8636628 C31.8869527,13.8636628 31.1699495,13.4271206 31.2702205,12.8886062 L31.2702205,12.8886062 Z M29.8800005,20.9517852 L31.0858795,14.4049161 L34.4116795,14.4049161 L33.2062385,20.9517852 L29.8800005,20.9517852 Z" id="i" fill="#033877"></path>
                    <path d="M49.3846278,15.9939537 C49.371081,16.3248592 49.312808,16.6162989 49.2231406,17.1161267 L48.6315942,20.4926207 C48.5802021,20.7901321 48.6896522,21.0241079 48.964245,21.1902112 L48.9440322,21.306657 L45.5334477,21.3133791 L45.5072141,20.4538054 C45.0083454,20.7586896 44.4060475,21.0123982 43.8676134,21.159636 C43.3240185,21.3034043 42.8864333,21.362603 42.2265075,21.362603 C41.1257709,21.362603 40.4987446,21.2507109 40.0620195,20.8632089 C39.6175533,20.4646477 39.4027388,20.2026989 39.4268221,19.6575505 C39.4386487,19.3407399 39.6029313,18.9350228 39.8375286,18.6561601 C40.0738461,18.3658046 40.3959605,18.18192 40.7479639,18.0158167 C41.0999674,17.8488461 41.5160497,17.7252444 42.1114666,17.6248452 C42.7180651,17.5300839 43.5609812,17.4270825 44.685371,17.332538 C45.2711116,17.2828805 45.6321463,17.1486535 45.7998694,17.0831663 C46.0383372,16.9910071 46.1318751,16.8869215 46.167355,16.6928452 C46.2273482,16.3528322 46.1196184,16.1500821 45.666551,16.0577061 C44.431421,15.8113702 42.1338297,16.2153524 40.9466513,16.5128638 L41.5889447,14.7581538 C43.1605961,14.5267802 44.6208621,14.378675 46.168,14.378675 C48.6217028,14.378675 49.4046256,15.0886257 49.3846278,15.9939537 M45.8639486,18.2059901 C45.7175135,18.2562981 45.5278573,18.3107262 45.2971306,18.3642869 C45.068124,18.4191487 44.6449457,18.4876718 44.0280258,18.5889384 C43.6080729,18.6561604 43.3100419,18.7455005 43.1487697,18.8665001 C42.9924432,18.9822953 42.8982602,19.1260636 42.8653607,19.2999733 C42.8311709,19.4860264 42.8982602,19.6365168 43.0520064,19.7484089 C43.216719,19.8629031 43.4902367,19.9181986 43.8738495,19.9181986 C44.1581187,19.9181986 44.4370121,19.8754801 44.71182,19.7883084 C44.9900683,19.6944145 45.2218702,19.5744992 45.40228,19.4198886 C45.5278573,19.3058281 45.6246207,19.1570724 45.69257,18.9822953 C45.7345008,18.8697527 45.7912686,18.6097555 45.8639486,18.2059901" id="a" fill="#033877"></path>
                    <path d="M9.60143239,18.9709308 C8.52705628,19.1800752 7.92228511,19.2605318 6.859861,19.2605318 C5.28284899,19.2605318 4.03027944,18.4916061 4.09764525,17.0822291 C4.14610518,16.1436404 5.27872012,14.1623176 8.1565443,14.1623176 C9.06185394,14.1623176 9.77006424,14.3191759 10.7225299,14.8524941 L11.1404153,12.5489182 C9.84590511,12.068313 8.98775154,11.9961795 7.87643289,12.0081306 C4.10612031,12.0480388 0.482274047,13.7325046 0.0335307914,17.1560699 C-0.423470209,20.6355493 3.90358824,21.510541 5.82503515,21.5022179 C6.93439802,21.4992302 8.08700539,21.4548403 9.16333728,21.3451462 L9.60143239,18.9709308 Z" id="c" fill="#033877"></path>
                    <path d="M36.0081162,14.3830526 L36.2484264,13.0523118 L39.7448081,12.3245794 L39.3728994,14.3830526 L41.0849997,14.3830526 L40.7597447,15.6994912 L39.0986993,15.695495 L38.0894844,20.9517845 C38.0894844,20.9517845 34.7231608,20.9305414 34.7112773,20.9517845 L35.716311,15.7083249 L34.4449995,15.7083249 L34.703575,14.3830526 L36.0081162,14.3830526 Z" id="t" fill="#033877"></path>
                    <polygon id="l" fill="#033877" points="52.756792 21.3580275 49.3850011 21.3626043 51.0812475 11.9137602 54.3650009 12.0063853"></polygon>
                    <path d="M19.5050005,23.4167 L21.0880642,14.4795243 L23.9445594,14.4795243 L23.7235772,15.6204084 C23.9715398,15.2796666 24.3676804,15.0002927 24.9137121,14.7722017 C25.4650971,14.5462565 26.0854319,14.378675 26.7590851,14.378675 C27.504686,14.378675 27.9644233,14.4188002 28.5224463,14.7084736 C29.0770432,15.0002927 29.4639762,15.4230013 29.6751085,15.9740245 C29.8890244,16.5164648 29.9335635,17.1260664 29.817505,17.7895258 C29.6243597,18.8904993 29.0881779,19.7595195 28.2098164,20.3978739 C27.3376646,21.03537 26.5535202,21.203166 25.4329775,21.2074574 C25.0361945,21.2074574 24.7042929,21.1660449 24.4284934,21.098669 C24.1591177,21.0278599 23.9445594,20.9424599 23.7807499,20.8379629 C23.6246491,20.7326076 23.4584841,20.5869126 23.2454247,20.3536719 L22.7128832,23.4167 L19.5050005,23.4167 Z M25.4278386,16.0096436 C25.0019339,16.0096436 24.6158573,16.1381727 24.2730351,16.3975913 C23.9332106,16.6576537 23.7169393,17.0355165 23.6295742,17.5391191 C23.52722,18.1212553 23.5871764,18.5388142 23.8171521,18.7978037 C24.0496974,19.0535745 24.3835262,19.1823183 24.8224929,19.1823183 C25.1184206,19.1823183 25.4248408,19.1293188 25.6505339,19.0179554 C25.928903,18.8701147 26.1209777,18.7141202 26.2871426,18.4692926 C26.4667978,18.2103031 26.5843552,17.9227754 26.6447398,17.5893292 C26.7381006,17.0627673 26.6590866,16.6681678 26.4156207,16.4081054 C26.1787928,16.1409622 25.8520303,16.0096436 25.4278386,16.0096436 L25.4278386,16.0096436 Z" id="p" fill="#033877"></path>
                    <path d="M79.1312915,20.8941314 L79.3905033,21.0656846 C78.7367733,22.3682262 77.40393,23.4167006 75.8407002,23.4167006 C74.5616353,23.4167006 73.5133872,22.5837729 73.4578879,21.0195863 C73.3546334,18.215796 76.0386046,15.6111338 78.2370646,15.6111338 C79.1803374,15.6111338 80.0541284,16.0142312 80.0934942,17.0077665 C80.1743769,19.2369061 76.9747786,19.9191196 74.8670965,19.965218 C74.7984752,20.1982357 74.7730919,20.4329373 74.7851382,20.788884 C74.8199866,21.7135875 75.3917583,22.4911552 76.5733768,22.4911552 C77.5943055,22.4911552 78.6152342,21.6868547 79.1312915,20.8941314 M78.8445451,16.867577 C78.8258302,16.3402876 78.5550023,15.9860249 77.9989339,15.9860249 C76.6587767,15.9860249 75.2332195,18.5546926 74.9871297,19.5909583 C77.1862351,19.5909583 78.8976781,18.3094662 78.8445451,16.867577" id="e" fill="#033877"></path>
                    <path d="M66.198115,16.7953076 C66.4256664,16.7654085 66.7915586,16.7266659 66.9495086,16.7266659 C67.1908509,16.7266659 67.4171094,16.7713041 67.4283146,17.0035487 C67.4326243,17.1423059 67.1774909,18.1352938 67.1234044,18.366275 L66.6129222,20.5659664 C66.4067037,21.4663091 66.1830311,22.4087632 65.9850011,23.1535041 L67.2968692,23.1535041 L68.0336098,19.6685715 C70.2841274,17.3791828 71.1495121,16.6323363 71.6806808,16.6323363 C71.9190064,16.6323363 72.0838518,16.7550912 72.095488,17.0345006 C72.108848,17.4375071 71.8530682,18.3525888 71.7645042,18.6147326 L71.0118177,21.1563688 C70.8407232,21.7276106 70.7142339,22.242423 70.7260856,22.6106876 C70.7493579,23.1690853 71.0945636,23.4167006 71.6069852,23.4167006 C72.5656746,23.4167006 73.2610423,22.4405573 73.8700008,21.4818903 L73.6915798,21.1668967 C73.4446349,21.5530586 72.8770494,22.3946559 72.4284111,22.3946559 C72.286407,22.3946559 72.1530223,22.3020107 72.1478507,22.0699766 C72.1344906,21.7722487 72.2631347,21.3283941 72.3514833,21.0334034 L73.1873467,18.0563348 C73.4110193,17.2360039 73.5187615,16.7081369 73.5129434,16.4272536 C73.4922569,15.8711719 73.1597647,15.6111338 72.6507909,15.6111338 C71.7884229,15.6111338 70.6416157,16.2274348 68.215694,18.9560458 L68.181432,18.9560458 L68.4865577,17.6242714 C68.6526961,16.8963751 68.8145248,16.1362635 68.9720438,15.6111338 C68.1331636,15.9067561 66.930115,16.2373309 66.1869098,16.3775621 L66.198115,16.7953076 Z" id="n" fill="#033877"></path>
                    <path d="M81.4988129,15.499147 L81.2797092,15.499147 L81.2797092,14.0775624 L81.8221215,14.0775624 C82.1579439,14.0775624 82.3244899,14.2013668 82.3244899,14.4799837 C82.3244899,14.7364846 82.1661347,14.8447849 81.9554494,14.873285 L82.3599834,15.499147 L82.1176725,15.499147 L81.7445365,14.882177 L81.4988129,14.882177 L81.4988129,15.499147 Z M81.7520448,14.7009164 C81.9377027,14.7009164 82.0976506,14.6874644 82.0976506,14.4672157 C82.0976506,14.2911991 81.9411155,14.258367 81.7886758,14.258367 L81.4988129,14.258367 L81.4988129,14.7009164 L81.7520448,14.7009164 Z" id="R" fill="#033877"></path>
                    <path d="M80.5100011,14.7841366 C80.5100011,14.0775624 81.0799435,13.5570368 81.7593239,13.5570368 C82.4296035,13.5570368 83.000001,14.0775624 83.000001,14.7841366 C83.000001,15.4991469 82.4296035,16.0219526 81.7593239,16.0219526 C81.0799435,16.0219526 80.5100011,15.4991469 80.5100011,14.7841366 Z M81.759324,15.8176639 C82.3140225,15.8176639 82.7538224,15.3826385 82.7538224,14.7841366 C82.7538224,14.2013668 82.3140225,13.7608694 81.759324,13.7608694 C81.1930219,13.7608694 80.7564073,14.2013668 80.7564073,14.7841366 C80.7564073,15.3826385 81.1930219,15.8176639 81.759324,15.8176639 Z" id="R" fill="#033877"></path>
                    <path d="M76.9259963,2.7354368 C79.32696,5.3704414 74.2544741,10.1339995 66.7044922,15.1313702 C66.3703363,13.8196596 65.6282947,12.7715781 64.5852973,12.1048902 C66.5186584,9.60416705 66.9164116,7.48419387 65.2486506,5.83871029 C59.7816453,0.445145029 34.376746,3.44609866 22.1600081,5.61004578 L21.8193847,5.67632846 C21.7478107,5.68812635 21.6805483,5.64136381 21.6680444,5.57036197 C21.6564029,5.50021817 21.7034003,5.43264845 21.7743275,5.42042155 L22.1177535,5.34641661 C36.8632967,2.14125227 71.5372481,-3.17830806 76.9259963,2.7354368 Z M54.4877532,20.8089424 C54.6248649,21.2703471 54.8175974,21.6905664 55.0523688,22.073247 C55.0295169,22.0859029 55.0068805,22.0983443 54.983813,22.1110002 C50.7133014,24.44784 46.4697378,26.7254758 42.7750521,28.6444559 L42.6295327,28.7199623 C42.5708937,28.7615767 42.4900496,28.7476337 42.4495197,28.6890733 C42.4070496,28.6298694 42.4223561,28.5500728 42.4807794,28.5084584 L42.6526002,28.4089271 C47.0089144,25.7541879 51.0586676,23.2245063 54.476974,20.8168792 C54.4808545,20.8145196 54.4843039,20.8119455 54.4877532,20.8089424 Z" id="Boom" fill="#EB3D32"></path>
                </g>
            </g>
        </g>
    </g>
</svg>